<?xml version="1.0" standalone="no"?>
<!DOCTYPE svg PUBLIC "-//W3C//DTD SVG 20010904//EN"
 "http://www.w3.org/TR/2001/REC-SVG-20010904/DTD/svg10.dtd">
<svg version="1.0" xmlns="http://www.w3.org/2000/svg"
 width="190.000000pt" height="50.000000pt" viewBox="0 0 190.000000 50.000000"
 preserveAspectRatio="xMidYMid meet">

<g transform="translate(0.000000,50.000000) scale(0.100000,-0.100000)"
fill="#000000" stroke="none">
<path d="M0 250 l0 -250 950 0 950 0 0 250 0 250 -950 0 -950 0 0 -250z m486
102 c6 -4 14 -17 18 -29 6 -20 4 -23 -18 -23 -14 0 -26 5 -26 12 0 6 -3 8 -7
5 -3 -4 5 -20 20 -35 38 -39 45 -84 18 -111 -12 -12 -27 -21 -34 -21 -22 0
-46 24 -53 53 -5 24 -3 27 20 27 20 0 26 -5 26 -21 0 -12 4 -17 11 -14 7 5 5
14 -6 28 -54 75 -58 91 -32 125 10 13 46 16 63 4z m124 -11 c24 -46 6 -101
-32 -101 -14 0 -18 -8 -18 -40 0 -33 -3 -40 -20 -40 -19 0 -20 7 -20 100 l0
100 40 0 c29 0 42 -5 50 -19z m117 -83 c2 -92 1 -98 -17 -98 -17 0 -20 7 -20
46 0 27 -4 43 -10 39 -5 -3 -10 -24 -10 -46 0 -32 -3 -39 -20 -39 -19 0 -20 7
-20 101 l0 100 48 -3 47 -3 2 -97z m53 2 c0 -93 -1 -100 -20 -100 -19 0 -20 7
-20 100 0 93 1 100 20 100 19 0 20 -7 20 -100z m71 60 l6 -35 2 38 c1 30 5 37
21 37 19 0 20 -7 20 -100 0 -93 -1 -100 -20 -100 -13 0 -22 9 -26 28 -10 47
-12 48 -13 10 -1 -31 -5 -38 -21 -38 -19 0 -20 7 -20 101 0 98 0 100 23 97 16
-2 24 -12 28 -38z m159 21 c16 -31 12 -51 -10 -51 -11 0 -20 7 -20 15 0 8 -4
15 -10 15 -6 0 -10 -28 -10 -65 0 -42 4 -65 11 -65 8 0 9 13 5 40 -6 38 -5 40
19 40 24 0 25 -3 25 -56 0 -40 -3 -54 -12 -51 -7 2 -21 0 -30 -5 -11 -5 -26
-5 -38 2 -18 9 -20 21 -20 93 0 51 5 88 12 95 19 19 66 15 78 -7z m158 7 c19
-19 15 -48 -8 -48 -11 0 -20 5 -20 12 0 6 -3 9 -6 5 -4 -3 5 -20 20 -37 32
-39 41 -72 27 -98 -25 -47 -91 -34 -91 18 0 23 4 30 20 30 14 0 20 -7 20 -21
0 -11 4 -17 10 -14 12 7 -10 54 -34 74 -19 16 -21 62 -4 79 7 7 21 12 33 12
12 0 26 -5 33 -12z m115 5 c3 -5 8 -50 11 -100 7 -90 7 -93 -13 -93 -12 0 -21
6 -21 15 0 8 -4 15 -10 15 -5 0 -10 -7 -10 -15 0 -8 -9 -15 -20 -15 -23 0 -23
6 -14 123 l7 77 33 0 c18 0 35 -3 37 -7z m77 -78 c0 -78 2 -85 20 -85 11 0 20
-7 20 -15 0 -11 -11 -15 -40 -15 l-40 0 0 100 c0 93 1 100 20 100 18 0 20 -7
20 -85z m130 65 c0 -13 -7 -20 -20 -20 -13 0 -20 -7 -20 -20 0 -13 7 -20 20
-20 13 0 20 -7 20 -20 0 -13 -7 -20 -20 -20 -14 0 -20 -7 -20 -21 0 -12 8 -23
20 -26 37 -10 23 -33 -20 -33 l-40 0 0 100 0 100 40 0 c33 0 40 -3 40 -20z"/>
<path d="M560 294 c0 -14 4 -23 10 -19 6 3 10 15 10 26 0 10 -4 19 -10 19 -5
0 -10 -12 -10 -26z"/>
<path d="M670 306 c0 -8 5 -18 10 -21 6 -3 10 3 10 14 0 12 -4 21 -10 21 -5 0
-10 -6 -10 -14z"/>
<path d="M1241 258 c-1 -21 4 -38 9 -38 12 0 12 27 0 55 -7 16 -9 13 -9 -17z"/>
</g>
</svg>
