<?xml version="1.0" standalone="no"?>
<!DOCTYPE svg PUBLIC "-//W3C//DTD SVG 20010904//EN"
 "http://www.w3.org/TR/2001/REC-SVG-20010904/DTD/svg10.dtd">
<svg version="1.0" xmlns="http://www.w3.org/2000/svg"
 width="512.000000pt" height="512.000000pt" viewBox="0 0 512.000000 512.000000"
 preserveAspectRatio="xMidYMid meet">

<g transform="translate(0.000000,512.000000) scale(0.100000,-0.100000)"
fill="#000000" stroke="none">
<path d="M3685 4958 c-150 -55 -165 -195 -40 -370 19 -26 33 -48 30 -48 -3 0
-34 18 -68 39 -34 22 -66 36 -70 32 -4 -4 -17 -79 -28 -166 -22 -170 -53 -307
-91 -401 -74 -183 -230 -318 -425 -368 -117 -30 -529 -78 -684 -80 -168 -1
-179 3 -179 68 0 53 -54 184 -107 262 -86 126 -179 184 -261 162 -51 -14 -128
-96 -175 -186 -81 -154 -177 -515 -193 -723 -7 -85 -7 -86 -38 -95 -51 -15
-97 -119 -66 -150 7 -7 4 -16 -10 -29 -29 -26 -26 -76 6 -114 23 -28 24 -31 7
-31 -29 0 -63 -29 -63 -54 0 -27 41 -91 75 -118 l23 -18 -30 -31 c-27 -27 -30
-35 -25 -77 2 -26 8 -55 12 -66 7 -16 6 -17 -14 -7 -32 18 -100 16 -118 -2
-21 -21 -10 -60 30 -104 l33 -36 -23 -23 c-31 -31 -30 -82 2 -146 l25 -49 -23
7 c-12 3 -34 13 -49 20 -36 18 -44 18 -68 -6 -40 -40 -15 -101 55 -134 42 -20
41 -33 -11 -139 -108 -218 -447 -603 -820 -932 -50 -44 -123 -109 -164 -144
-43 -39 -80 -81 -91 -105 -40 -87 -14 -227 64 -348 52 -81 78 -93 212 -92 419
3 1352 328 1812 631 62 41 137 107 253 224 277 279 473 421 1025 739 577 333
839 509 1175 791 377 316 549 555 486 678 -35 66 -156 150 -219 151 -15 0 -43
6 -61 14 -28 11 -38 25 -55 70 -12 31 -21 61 -21 66 0 5 -14 25 -30 44 -32 35
-85 60 -118 54 -14 -2 -41 30 -113 137 -233 346 -438 585 -590 687 -55 37 -55
34 -18 133 30 83 38 229 15 288 -32 85 -105 123 -181 95z"/>
</g>
</svg>
